<svg width="24" height="14" viewBox="0 0 24 14" fill="none" xmlns="http://www.w3.org/2000/svg">
<path d="M13.5374 6.8277C13.5374 10.5984 10.5069 13.6552 6.76883 13.6552C3.03073 13.6552 0 10.5977 0 6.8277C0 3.05767 3.0305 0 6.76883 0C10.5072 0 13.5374 3.05698 13.5374 6.8277Z" fill="white"/>
<path d="M20.9627 6.82814C20.9627 10.3775 19.4474 13.2559 17.5783 13.2559C15.7091 13.2559 14.1938 10.3775 14.1938 6.82814C14.1938 3.27883 15.7089 0.400391 17.578 0.400391C19.4472 0.400391 20.9625 3.2779 20.9625 6.82814" fill="white"/>
<path d="M24 6.82759C24 10.0069 23.4672 12.5858 22.8097 12.5858C22.1522 12.5858 21.6196 10.0076 21.6196 6.82759C21.6196 3.64758 22.1525 1.06934 22.8097 1.06934C23.467 1.06934 24 3.64735 24 6.82759Z" fill="white"/>
</svg>
